<?xml version="1.0" encoding="UTF-8"?>
<svg width="47px" height="47px" viewBox="0 0 47 47" version="1.1" xmlns="http://www.w3.org/2000/svg" xmlns:xlink="http://www.w3.org/1999/xlink">
    <!-- Generator: Sketch 55.1 (78136) - https://sketchapp.com -->
    <title>symbole_elli</title>
    <desc>Created with Sketch.</desc>
    <defs>
        <polygon id="path-1" points="0 0.0394679487 46.9638462 0.0394679487 46.9638462 46.9909615 0 46.9909615"></polygon>
    </defs>
    <g id="Page-1" stroke="none" stroke-width="1" fill="none" fill-rule="evenodd">
        <g id="Desktop-HD-Copy-13" transform="translate(-85.000000, -73.000000)">
            <g id="symbole_elli" transform="translate(85.000000, 73.000000)">
                <mask id="mask-2" fill="white">
                    <use xlink:href="#path-1"></use>
                </mask>
                <g id="Clip-2"></g>
                <path d="M0,24.521391 L0.00662820513,24.521391 C0.00331410256,24.1881583 0,23.8546237 0,23.521391 L0,24.521391 Z M46.9572179,24.521391 L46.9638462,24.521391 L46.9638462,23.521391 C46.9638462,23.8546237 46.9605321,24.1881583 46.9572179,24.521391 L46.9572179,24.521391 Z" id="Fill-1" fill="#1A1919" mask="url(#mask-2)"></path>
                <path d="M23.4819231,46.0018526 C11.2518301,46.0018526 1.27095833,36.1872885 1.00477564,24.0204647 L45.9590705,24.0204647 C45.6928878,36.1872885 35.7118654,46.0018526 23.4819231,46.0018526 Z M46.9572179,23.0223173 C46.6910353,10.3032436 36.2641154,0.0394679487 23.4819231,0.0394679487 C10.6995801,0.0394679487 0.272810897,10.3032436 0.00662820513,23.0223173 C0.00331410256,23.188625 0,23.3550833 0,23.521391 C0,23.6876987 0.00331410256,23.8541571 0.00662820513,24.0204647 C0.272810897,36.7362244 10.6995801,47 23.4819231,47 C36.2641154,47 46.6910353,36.7362244 46.9572179,24.0204647 C46.9605321,23.8541571 46.9638462,23.6876987 46.9638462,23.521391 C46.9638462,23.3550833 46.9605321,23.188625 46.9572179,23.0223173 L46.9572179,23.0223173 Z" id="Fill-3" fill="#152725" mask="url(#mask-2)"></path>
            </g>
        </g>
    </g>
</svg>