<?xml version="1.0" encoding="UTF-8"?>
<svg width="181px" height="79px" viewBox="0 0 181 79" version="1.1" xmlns="http://www.w3.org/2000/svg" xmlns:xlink="http://www.w3.org/1999/xlink">
    <!-- Generator: Sketch 55.1 (78136) - https://sketchapp.com -->
    <title>signature_elli</title>
    <desc>Created with Sketch.</desc>
    <defs>
        <polygon id="path-1" points="0.0240265487 0.0889423077 50.742469 0.0889423077 50.742469 55.3754006 0.0240265487 55.3754006"></polygon>
    </defs>
    <g id="Page-1" stroke="none" stroke-width="1" fill="none" fill-rule="evenodd">
        <g id="Desktop-HD-Copy-13" transform="translate(-597.000000, -297.000000)">
            <g id="signature_elli" transform="translate(597.000000, 297.000000)">
                <g id="Group-3" transform="translate(0.000000, 23.237179)">
                    <mask id="mask-2" fill="white">
                        <use xlink:href="#path-1"></use>
                    </mask>
                    <g id="Clip-2"></g>
                    <path d="M50.742469,32.0432692 L13.0267942,32.0432692 C13.8677235,38.4555288 19.2268451,44.3401442 28.2596261,44.3401442 C34.2482434,44.3401442 39.3979336,41.5016026 42.5482146,37.4026442 L49.2720442,45.0757212 C43.5981748,51.6967147 36.24525,55.3754006 27.000635,55.3754006 C10.0855442,55.3754006 0,43.3926282 0,28.1534455 C0,12.7015224 10.400292,0.0889423077 27.2096659,0.0889423077 C42.12775,0.0889423077 50.742469,9.86458333 50.742469,26.5761218 L50.742469,32.0432692 Z M38.1365398,22.6887019 C38.1365398,15.4346955 34.1449292,10.7059295 26.4740531,10.7059295 C18.7006637,10.7059295 13.9738407,15.5408654 12.8177633,22.6887019 L38.1365398,22.6887019 L38.1365398,22.6887019 Z" id="Fill-1" fill="#18332F" mask="url(#mask-2)"></path>
                </g>
                <path d="M134.060934,78.6125801 C124.922436,78.6125801 117.569111,72.4142628 117.569111,60.9571314 L117.569111,4.51282051 L130.281157,4.51282051 L130.281157,59.5889423 C130.281157,64.4242788 133.222407,67.1586538 137.108301,67.1586538 C138.895876,67.1586538 140.784763,66.6298077 142.783772,65.5813301 L145.829137,75.3573718 C141.837527,77.5641026 137.843113,78.6125801 134.060934,78.6125801" id="Fill-4" fill="#18332F"></path>
                <path d="M88.8838142,78.6125801 C79.7429137,78.6125801 72.3891881,72.4142628 72.3891881,60.9571314 L72.3891881,4.51282051 L85.1012345,4.51282051 L85.1012345,59.5889423 C85.1012345,64.4242788 88.042885,67.1586538 91.930781,67.1586538 C93.7187566,67.1586538 95.6076438,66.6298077 97.6046504,65.5813301 L100.649215,75.3573718 C96.6600066,77.5641026 92.6663938,78.6125801 88.8838142,78.6125801" id="Fill-5" fill="#18332F"></path>
                <path d="M180.713684,8.40024038 C180.713684,13.0264423 176.931504,16.5985577 172.096962,16.5985577 C167.266425,16.5985577 163.484246,13.0264423 163.484246,8.40024038 C163.484246,3.67107372 167.266425,0.0961538462 172.096962,0.0961538462 C176.931504,0.0961538462 180.713684,3.67107372 180.713684,8.40024038 Z M165.689883,77.9823718 L178.507646,77.9823718 L178.507646,24.588141 L165.689883,24.588141 L165.689883,77.9823718 Z" id="Fill-6" fill="#18332F"></path>
            </g>
        </g>
    </g>
</svg>